<svg width="100" height="20" viewBox="0 0 100 20" fill="none" xmlns="http://www.w3.org/2000/svg">
<g clip-path="url(#clip0_63_21)">
<path d="M13.8312 10.0597C13.8312 6.20779 17.0026 3.09264 20.968 3.09264C24.961 3.09264 28.1333 6.20952 28.1333 10.0597C28.1333 13.8831 24.961 17.0554 20.968 17.0554C17.0026 17.0554 13.8312 13.8797 13.8312 10.0597ZM24.7065 10.0597C24.7065 8.1342 23.0355 6.43463 20.968 6.43463C18.929 6.43463 17.258 8.1342 17.258 10.0597C17.258 12.0139 18.929 13.7134 20.968 13.7134C23.039 13.7134 24.7065 12.0139 24.7065 10.0597ZM85.8 10.1732C85.8 5.95325 89.2268 3.09264 92.3429 3.09264C94.4667 3.09264 95.6848 3.74372 96.5056 4.99048L96.832 3.34545H100.017V16.8H96.832L96.4208 15.4147C95.4866 16.4346 94.3247 17.0597 92.3429 17.0597C89.284 17.0554 85.8 14.3645 85.8 10.1732ZM96.6753 10.1446C96.6675 8.10762 94.9896 6.43593 92.9524 6.43593C90.91 6.43593 89.2294 8.11654 89.2294 10.1589V10.1732C89.2294 12.0424 90.9004 13.7134 92.9403 13.7134C95.0052 13.7134 96.6753 12.0424 96.6753 10.1446ZM81.8857 4.90476V3.34632H78.4026V16.8H81.8857V9.55065C81.8857 7.3697 82.9628 6.23723 84.8294 6.23723C84.9532 6.23723 85.071 6.24589 85.1861 6.25714L85.832 3.00952C84.0164 3.01905 82.7004 3.64156 81.8857 4.90476ZM46.884 4.90563V3.34719L43.4009 3.35498L43.4303 16.8069L46.9134 16.7991L46.8944 9.55065C46.8892 7.37056 47.9636 6.2355 49.832 6.23117C49.9512 6.23152 50.0703 6.23818 50.1887 6.25108L50.8312 3C49.013 3.01472 47.6952 3.63983 46.884 4.90563ZM29.3403 11.5887V3.34719H32.8225V11.1645C32.8225 12.8918 33.7853 13.9117 35.4563 13.9117C37.3255 13.9117 38.4 12.7784 38.4 10.5974V3.34719H41.884V16.8H38.4026V15.2416C37.5818 16.516 36.2502 17.1394 34.4095 17.1394C31.2944 17.1403 29.3403 14.8745 29.3403 11.5887ZM63.2571 10.0753C63.2649 6.30823 65.961 3.08485 70.2372 3.09264C74.2026 3.10043 77 6.27706 76.9905 10.019C76.9913 10.389 76.9619 10.7584 76.9039 11.1238L66.6519 11.1048C67.045 12.7195 68.374 13.8831 70.3853 13.8874C71.6026 13.8874 72.9065 13.439 73.7013 12.4208L76.0771 14.3255C74.8554 16.0511 72.7004 17.0667 70.4078 17.0623C66.3602 17.0485 63.2502 14.0121 63.2571 10.0753ZM73.484 8.67792C73.2883 7.31861 71.8745 6.26753 70.2035 6.26493C68.5887 6.26493 67.2848 7.22251 66.7723 8.6658L73.484 8.67792ZM50.8519 13.8675L53.948 12.2468C54.4597 13.3558 55.4831 14.0095 56.9333 14.0095C58.2693 14.0095 58.7809 13.5835 58.7809 12.9861C58.7809 10.8216 51.4468 12.1333 51.4468 7.18528C51.4468 4.45628 53.8346 3.00693 56.7905 3.00693C59.0364 3.00693 61.026 4.00173 62.1065 5.84935L59.0381 7.47273C58.5835 6.56277 57.7307 6.05108 56.6502 6.05108C55.5991 6.05108 55.0866 6.42078 55.0866 7.04589C55.0866 9.14978 62.4208 7.81385 62.4208 12.8468C62.4208 15.4623 60.2892 17.0537 56.8493 17.0537C53.9212 17.0511 51.8745 16.0848 50.8519 13.8675ZM0 10.0597C0 6.18009 3.17143 3.06407 7.1368 3.06407C9.55645 3.0471 11.8279 4.25342 13.1688 6.26753L10.1957 7.99221C9.85148 7.50077 9.39355 7.09987 8.86092 6.82368C8.32829 6.54749 7.73677 6.40421 7.1368 6.40606C5.09784 6.40606 3.42684 8.10563 3.42684 10.0597C3.42684 12.0139 5.09784 13.7134 7.1368 13.7134C7.76504 13.7172 8.38378 13.56 8.93408 13.2569C9.48438 12.9538 9.94791 12.5148 10.2805 11.9818L13.2242 13.7377C11.899 15.8117 9.59636 17.065 7.13507 17.0519C3.17143 17.0554 0 13.8797 0 10.0597Z" fill="#0056D2"/>
</g>
<defs>
<clipPath id="clip0_63_21">
<rect width="100" height="14.1991" fill="white" transform="translate(0 3)"/>
</clipPath>
</defs>
</svg>
