<svg width="25" height="25" viewBox="0 0 25 25" fill="none" xmlns="http://www.w3.org/2000/svg">
<g id="Coursea-fav">
<g id="Group 10">
<circle id="Ellipse 2" cx="12.5" cy="12.5" r="12.5" fill="#0056D2"/>
</g>
<path id="Vector" d="M13.1368 6.00018C9.17143 6.00018 6 9.11619 6 12.9958C6 16.8158 9.17143 19.9915 13.1351 19.9881C15.5964 20.0011 17.899 18.7478 19.2242 16.6738L16.2805 14.9179C15.9479 15.4509 15.4844 15.8899 14.9341 16.193C14.3838 16.4961 13.765 16.6533 13.1368 16.6495C11.0978 16.6495 9.42684 14.95 9.42684 12.9958C9.42684 11.0417 11.0978 9.34217 13.1368 9.34217C13.7368 9.34032 14.3283 9.4836 14.8609 9.75979C15.3935 10.036 15.8515 10.4369 16.1957 10.9283L19.1688 9.20364C17.8279 7.18953 15.5564 5.98321 13.1368 6.00018Z" fill="white"/>
</g>
</svg>
