<svg width="25" height="25" viewBox="0 0 25 25" fill="none" xmlns="http://www.w3.org/2000/svg">
<g clip-path="url(#clip0_54_242)">
<rect width="25" height="25" fill="#03EF62"/>
<path d="M13.2697 17.0991V13.6085L20 10.4659L18.3622 9.70034L13.2697 12.0775V8.5722C13.2697 8.33779 13.1131 8.11436 12.8625 7.99715L6.73629 5.1182C6.55345 5.03595 6.34703 4.99528 6.13848 5.00044C5.92993 5.00559 5.72688 5.05637 5.55044 5.14751C5.3811 5.23384 5.24161 5.35424 5.14525 5.49723C5.0489 5.64021 4.9989 5.80102 5.00002 5.96431V15.8135C5.00002 16.1468 5.20587 16.4545 5.55044 16.6303C5.72671 16.7218 5.92982 16.7728 6.13846 16.778C6.3471 16.7831 6.55359 16.7422 6.73629 16.6596L11.6453 14.3667V17.4874C11.6453 17.7255 11.8064 17.9489 12.057 18.0661L18.3532 21L19.991 20.2308L13.2697 17.0991ZM11.6453 8.96046V12.8357L6.62442 15.1798V6.60163L11.6453 8.96046Z" fill="#05192D"/>
</g>
<defs>
<clipPath id="clip0_54_242">
<rect width="25" height="25" rx="12.5" fill="white"/>
</clipPath>
</defs>
</svg>
