<svg width="100" height="20" viewBox="0 0 100 20" fill="none" xmlns="http://www.w3.org/2000/svg">
<g clip-path="url(#clip0_63_58)">
<path fill-rule="evenodd" clip-rule="evenodd" d="M7.91912 14.5406V10.4547L14.3631 6.77931L12.7964 5.88112L7.91912 8.6628V4.56495C7.91912 4.28723 7.76924 4.02762 7.52885 3.88961L1.66177 0.523091C1.48689 0.426791 1.28938 0.379144 1.08983 0.385112C0.890275 0.391081 0.695971 0.450447 0.527156 0.557027C0.36529 0.658005 0.231903 0.79866 0.139647 0.965651C0.047391 1.13264 -0.000675267 1.32043 7.16661e-06 1.51121V13.0355C7.16661e-06 13.4258 0.197971 13.7827 0.528288 13.9897C0.696772 14.096 0.890639 14.1553 1.08976 14.1613C1.28888 14.1674 1.486 14.1201 1.66064 14.0242L6.36483 11.3415V14.9937C6.36483 15.2731 6.51528 15.5321 6.75793 15.6701L12.7862 19.1017L14.3535 18.203L7.91912 14.5406ZM6.36483 5.01574V9.54967L1.55487 12.2929V2.25669L6.36483 5.01687V5.01574Z" fill="#03EF62"/>
</g>
<g clip-path="url(#clip1_63_58)">
<path fill-rule="evenodd" clip-rule="evenodd" d="M36.4116 5.72178V6.95002C35.741 6.32017 34.9008 5.90027 33.9945 5.74204C33.0882 5.58381 32.1554 5.69417 31.311 6.05952C30.4666 6.42487 29.7476 7.02925 29.2425 7.7982C28.7374 8.56714 28.4682 9.46706 28.4682 10.3871C28.4682 11.3071 28.7374 12.207 29.2425 12.976C29.7476 13.7449 30.4666 14.3493 31.311 14.7146C32.1554 15.08 33.0882 15.1903 33.9945 15.0321C34.9008 14.8739 35.741 14.454 36.4116 13.8241V14.8624H37.901V5.72178H36.4122H36.4116ZM33.1863 13.61C32.3317 13.61 31.5121 13.2705 30.9078 12.6662C30.3035 12.0619 29.964 11.2423 29.964 10.3877C29.964 9.53304 30.3035 8.71343 30.9078 8.10912C31.5121 7.50481 32.3317 7.16531 33.1863 7.16531C34.0333 7.17676 34.8418 7.52126 35.4367 8.12427C36.0316 8.72728 36.3651 9.54029 36.3651 10.3874C36.3651 11.2345 36.0316 12.0475 35.4367 12.6505C34.8418 13.2535 34.0333 13.5986 33.1863 13.61ZM52.1128 5.72178V6.95002C51.4422 6.32017 50.602 5.90027 49.6957 5.74204C48.7893 5.58381 47.8565 5.69417 47.0122 6.05952C46.1678 6.42487 45.4488 7.02925 44.9437 7.7982C44.4385 8.56714 44.1694 9.46706 44.1694 10.3871C44.1694 11.3071 44.4385 12.207 44.9437 12.976C45.4488 13.7449 46.1678 14.3493 47.0122 14.7146C47.8565 15.08 48.7893 15.1903 49.6957 15.0321C50.602 14.8739 51.4422 14.454 52.1128 13.8241V14.8624H53.6016V5.72178H52.1128ZM48.8863 13.61C48.4632 13.61 48.0441 13.5266 47.6532 13.3646C47.2623 13.2026 46.9071 12.9653 46.6079 12.666C46.3087 12.3668 46.0713 12.0115 45.9094 11.6205C45.7475 11.2296 45.6642 10.8105 45.6643 10.3874C45.6643 9.9642 45.7477 9.54519 45.9097 9.15425C46.0716 8.76331 46.309 8.4081 46.6083 8.10891C46.9075 7.80971 47.2628 7.57239 47.6537 7.41049C48.0447 7.24858 48.4637 7.16527 48.8869 7.16531C49.7339 7.17676 50.5423 7.52126 51.1373 8.12427C51.7322 8.72728 52.0657 9.54029 52.0657 10.3874C52.0657 11.2345 51.7322 12.0475 51.1373 12.6505C50.5423 13.2535 49.7339 13.598 48.8869 13.6094L48.8863 13.61ZM41.6687 7.14884L41.6693 12.7718C41.6693 13.1047 41.9399 13.3753 42.2734 13.3753H44.0069V14.863H42.2734C41.719 14.8622 41.1876 14.6416 40.7956 14.2496C40.4036 13.8576 40.183 13.3262 40.1822 12.7718L40.1781 7.14884H38.5704V5.7059H40.1775V3.20002H41.6681V5.7059H44.3116V7.14943H41.6681L41.6687 7.14884ZM92.1463 5.67884C90.9028 5.67884 89.7728 6.16119 88.9304 6.94708V5.72178H87.441V18.5953H88.9304V13.8418C89.4923 14.3662 90.1739 14.7454 90.9159 14.9462C91.6578 15.1471 92.4376 15.1635 93.1873 14.994C93.937 14.8246 94.6339 14.4744 95.2174 13.9741C95.8009 13.4737 96.2532 12.8383 96.5349 12.1232C96.8167 11.4081 96.9193 10.6349 96.834 9.87102C96.7486 9.10714 96.4778 8.37572 96.0451 7.74043C95.6125 7.10514 95.0311 6.58526 94.3515 6.22604C93.672 5.86683 92.915 5.67859 92.1463 5.67884ZM92.1463 13.6165C91.3252 13.6165 90.535 13.3029 89.9373 12.7398C89.3396 12.1768 88.9795 11.4068 88.9304 10.5871V10.2012C88.9682 9.57337 89.1889 8.97033 89.5654 8.46646C89.9418 7.96258 90.4575 7.57992 91.0489 7.36566C91.6402 7.1514 92.2813 7.11491 92.8932 7.2607C93.505 7.4065 94.0608 7.72819 94.492 8.1861C94.9231 8.64401 95.2109 9.21811 95.3196 9.8376C95.4284 10.4571 95.3534 11.0949 95.104 11.6723C94.8546 12.2497 94.4417 12.7414 93.9161 13.0869C93.3905 13.4324 92.7753 13.6165 92.1463 13.6165ZM62.9828 13.1635C62.3919 13.9758 61.5571 14.5782 60.6 14.8828C59.6429 15.1875 58.6135 15.1786 57.6618 14.8574C56.7101 14.5362 55.8858 13.9195 55.3091 13.0971C54.7324 12.2748 54.4333 11.2897 54.4555 10.2855C54.4777 9.28135 54.82 8.31048 55.4325 7.5144C56.045 6.71831 56.8957 6.13862 57.8606 5.85977C58.8256 5.58093 59.8544 5.61751 60.7971 5.96418C61.7398 6.31085 62.5472 6.9495 63.1016 7.78708L61.6734 8.52943C61.2976 7.99979 60.7663 7.60014 60.1533 7.38583C59.5403 7.17152 58.8758 7.15317 58.2518 7.33331C57.6279 7.51346 57.0754 7.88318 56.6709 8.39127C56.2665 8.89935 56.03 9.52065 55.9944 10.1691C55.9587 10.8175 56.1256 11.461 56.4719 12.0104C56.8182 12.5598 57.3267 12.9879 57.9271 13.2354C58.5276 13.4829 59.1901 13.5375 59.8229 13.3917C60.4558 13.246 61.0276 12.907 61.4593 12.4218L62.9828 13.1635ZM84.4369 6.06766C84.5698 5.84884 84.8075 5.7159 85.064 5.7159H85.3504C85.9587 5.7159 86.4522 6.20884 86.4522 6.81708V14.8618H84.9334V8.04708C83.6092 10.1998 82.2883 12.3545 80.9704 14.5112C80.8369 14.7294 80.5998 14.8624 80.344 14.8624H80.0328C79.6269 14.8624 79.2987 14.5335 79.2987 14.1283V8.02943C77.9121 10.2792 76.5334 12.534 75.1628 14.7935L75.1216 14.8618H73.664V5.71649H75.184V5.73472L75.1487 12.0418L78.791 6.06825C78.8567 5.96076 78.949 5.87195 79.0589 5.81036C79.1688 5.74876 79.2927 5.71644 79.4187 5.71649H79.7069C80.3146 5.71649 80.8075 6.20766 80.8087 6.81531C80.8116 8.4959 80.8175 11.5583 80.8175 12.0035L84.4369 6.06766ZM72.5628 10.3865V5.72178H71.074V6.94943C70.4034 6.31959 69.5631 5.89968 68.6568 5.74145C67.7505 5.58322 66.8177 5.69358 65.9734 6.05893C65.129 6.42428 64.41 7.02866 63.9048 7.79761C63.3997 8.56656 63.1306 9.46647 63.1306 10.3865C63.1306 11.3065 63.3997 12.2064 63.9048 12.9754C64.41 13.7443 65.129 14.3487 65.9734 14.714C66.8177 15.0794 67.7505 15.1898 68.6568 15.0315C69.5631 14.8733 70.4034 14.4534 71.074 13.8235V14.8618H72.5628V10.3883V10.3865ZM67.8475 13.6088C67.4207 13.6146 66.997 13.5355 66.601 13.3762C66.2051 13.2169 65.8447 12.9804 65.5409 12.6807C65.237 12.3809 64.9958 12.0238 64.8311 11.63C64.6664 11.2362 64.5816 10.8136 64.5816 10.3868C64.5816 9.95995 64.6664 9.53738 64.8311 9.14359C64.9958 8.74981 65.237 8.39266 65.5409 8.09289C65.8447 7.79313 66.2051 7.55671 66.601 7.39737C66.997 7.23804 67.4207 7.15896 67.8475 7.16472C68.6945 7.17617 69.5029 7.52067 70.0978 8.12368C70.6928 8.72669 71.0263 9.5397 71.0263 10.3868C71.0263 11.2339 70.6928 12.0469 70.0978 12.6499C69.5029 13.2529 68.6945 13.5974 67.8475 13.6088ZM26.3846 1.94119V6.95002C25.7139 6.32017 24.8737 5.90027 23.9674 5.74204C23.0611 5.58381 22.1283 5.69417 21.2839 6.05952C20.4396 6.42487 19.7206 7.02925 19.2154 7.7982C18.7103 8.56714 18.4412 9.46706 18.4412 10.3871C18.4412 11.3071 18.7103 12.207 19.2154 12.976C19.7206 13.7449 20.4396 14.3493 21.2839 14.7146C22.1283 15.08 23.0611 15.1903 23.9674 15.0321C24.8737 14.8739 25.7139 14.454 26.3846 13.8241V14.8624H27.8734V1.94119H26.3846ZM23.1587 13.6094C22.3041 13.6094 21.4846 13.27 20.8803 12.6657C20.2761 12.0615 19.9366 11.2419 19.9366 10.3874C19.9366 9.53283 20.2761 8.71328 20.8803 8.10903C21.4846 7.50478 22.3041 7.16531 23.1587 7.16531C24.0132 7.16531 24.8328 7.50478 25.437 8.10903C26.0413 8.71328 26.3807 9.53283 26.3807 10.3874C26.3807 11.2419 26.0413 12.0615 25.437 12.6657C24.8328 13.27 24.0132 13.6094 23.1587 13.6094Z" fill="#05192D"/>
</g>
<defs>
<clipPath id="clip0_63_58">
<rect width="14.7059" height="20" fill="white"/>
</clipPath>
<clipPath id="clip1_63_58">
<rect width="97.0588" height="17.0588" fill="white" transform="translate(0 1.76471)"/>
</clipPath>
</defs>
</svg>
