<svg width="100" height="20" viewBox="0 0 100 20" fill="none" xmlns="http://www.w3.org/2000/svg">
<g clip-path="url(#clip0_63_4)">
<mask id="mask0_63_4" style="mask-type:luminance" maskUnits="userSpaceOnUse" x="0" y="0" width="40" height="20">
<path d="M39.9019 0H0V19.8935H39.9019V0Z" fill="white"/>
</mask>
<g mask="url(#mask0_63_4)">
<path d="M11.5908 10.6273L9.47339 7.58054V10.6273H7.28242V3.6156H9.47339V6.58054L11.6489 3.63508H14.2437L11.5766 6.94287L14.285 10.6273H11.5908Z" fill="black"/>
<path d="M38.6182 19.8494C39.3273 19.8494 39.9021 19.2773 39.9021 18.5714C39.9021 17.8657 39.3273 17.2935 38.6182 17.2935C37.9092 17.2935 37.3344 17.8657 37.3344 18.5714C37.3344 19.2773 37.9092 19.8494 38.6182 19.8494Z" fill="#00FF85"/>
<path d="M16.2643 2.55584C16.9734 2.55584 17.5482 1.9837 17.5482 1.27792C17.5482 0.572145 16.9734 0 16.2643 0C15.5553 0 14.9805 0.572145 14.9805 1.27792C14.9805 1.9837 15.5553 2.55584 16.2643 2.55584Z" fill="#00FF85"/>
<path d="M17.3601 3.6156H15.1691V10.6273H17.3601V3.6156Z" fill="black"/>
<path d="M15.1277 16.2078C15.1277 14.1182 16.4103 12.5234 18.4284 12.5234C19.4374 12.5234 20.2297 13.0026 20.6052 13.713V12.7117H22.7961V19.7039H20.6052V18.7169C20.2297 19.413 19.3652 19.8922 18.4 19.8922C16.3252 19.8935 15.1277 18.3117 15.1277 16.2078ZM20.6916 16.2078C20.6916 15.2065 20.129 14.3792 19.0335 14.3792C18.0103 14.3792 17.3755 15.148 17.3755 16.2078C17.3755 17.2662 18.009 18.0506 19.0335 18.0506C20.1303 18.0506 20.6916 17.2234 20.6916 16.2078Z" fill="black"/>
<path d="M24.0863 12.7117H26.2915V14.1766C26.5367 13.1325 27.3586 12.5961 28.2089 12.5961C28.4683 12.5961 28.6128 12.6104 28.7857 12.6545L28.7741 14.713C28.5147 14.6831 28.396 14.6701 28.1225 14.6701C26.9263 14.6701 26.2915 15.4532 26.2915 17.0052V19.7039H24.0863V12.7117Z" fill="black"/>
<path d="M29.2324 16.2078C29.2324 13.9156 30.7176 12.5234 32.9795 12.5234C35.1421 12.5234 36.6118 13.8727 36.6118 15.8454C36.6118 16.2078 36.5976 16.426 36.5537 16.8169H31.4221C31.4647 17.7312 32.0711 18.2247 33.0505 18.2247C33.7279 18.2247 34.1602 18.0364 34.3473 17.6013H36.5098C36.2944 18.9792 34.8956 19.8935 33.0505 19.8935C30.6879 19.8935 29.2324 18.5441 29.2324 16.2078ZM34.4363 15.4389C34.4221 14.5104 33.9034 14.0169 32.9666 14.0169C32.0156 14.0169 31.4389 14.5831 31.4247 15.4389H34.4363Z" fill="black"/>
<path d="M20.8388 8.54547V3.6156H18.6336V8.6169V10.6273H20.8388H23.9846V8.54547H20.8388Z" fill="black"/>
<path d="M27.3845 8.54547V3.6156H25.1793V8.6169V10.6273H27.3845H30.5303V8.54547H27.3845Z" fill="black"/>
<path d="M12.0863 12.7091V15.2273H9.44372V12.7091H7.28242V15.2273V17.2377V19.7221H9.44372V17.2377H12.0863V19.7221H14.2489V17.2377V15.2273V12.7091H12.0863Z" fill="black"/>
<path d="M4.56258 15.552L3.21548 15.1766C2.76 15.0403 2.60258 14.839 2.60258 14.5546C2.60258 14.2442 2.84516 14.0611 3.15871 14.0247C3.61419 13.9714 3.96645 14.1701 3.96645 14.665V14.6974H6.28387V14.665H6.28258C6.28258 13.2688 5.10968 12.4987 3.15097 12.4987C1.36516 12.4987 0.184516 13.3714 0.184516 14.6948C0.184516 15.7559 0.818065 16.4688 1.92645 16.7442L3.31613 17.0948C3.72903 17.226 3.89548 17.4299 3.89419 17.7494C3.8929 18.0987 3.54452 18.2961 3.18839 18.313C2.67226 18.3364 2.29677 18.0546 2.26839 17.6065H0C0.0335484 18.9442 1.33419 19.8844 3.28129 19.8844C5.12387 19.8844 6.32 19.0273 6.32 17.5727C6.31871 16.5117 5.65677 15.8429 4.56258 15.552Z" fill="black"/>
<path d="M4.56258 6.47534L3.21548 6.10001C2.76 5.96365 2.60258 5.76235 2.60258 5.47793C2.60258 5.16754 2.84516 4.98443 3.15871 4.94806C3.61419 4.89482 3.96645 5.09352 3.96645 5.58832V5.62079H6.28387V5.58832H6.28258C6.28258 4.19222 5.10968 3.42209 3.15097 3.42209C1.36516 3.42209 0.184516 4.29482 0.184516 5.61819C0.184516 6.67923 0.818065 7.39222 1.92645 7.66754L3.31613 8.01819C3.72903 8.14936 3.89548 8.35326 3.89419 8.67274C3.8929 9.02209 3.54452 9.21949 3.18839 9.23637C2.67226 9.25975 2.29677 8.97793 2.26839 8.52988H0C0.0335484 9.86754 1.33419 10.8078 3.28129 10.8078C5.12387 10.8078 6.32 9.95066 6.32 8.49611C6.31871 7.43508 5.65677 6.76624 4.56258 6.47534Z" fill="black"/>
</g>
</g>
<defs>
<clipPath id="clip0_63_4">
<rect width="40" height="20" fill="white"/>
</clipPath>
</defs>
</svg>
