<svg width="25" height="25" viewBox="0 0 25 25" fill="none" xmlns="http://www.w3.org/2000/svg">
<g id="sk-fav" clip-path="url(#clip0_54_284)">
<path id="Vector" d="M12.5 25C19.4036 25 25 19.4036 25 12.5C25 5.59644 19.4036 0 12.5 0C5.59644 0 0 5.59644 0 12.5C0 19.4036 5.59644 25 12.5 25Z" fill="#002333"/>
<path id="Vector_2" d="M16.3282 16.0156L14.1407 12.8125V16.0156H11.8751V8.67188H14.1407V11.7969L16.4063 8.75H19.1407L16.3282 12.1875L19.1407 16.0156H16.3282Z" fill="white"/>
<path id="Vector_3" d="M8.98437 11.6406L7.57816 11.25C7.03128 11.1719 6.87503 10.9375 6.87503 10.625C6.87503 10.3125 7.10941 10.0781 7.42191 10.0781C7.89062 10 8.28124 10.2344 8.28124 10.7813H10.7031C10.7031 9.29688 9.45312 8.51562 7.42191 8.51562C5.54691 8.51562 4.29691 9.45313 4.29691 10.7813C4.29691 11.875 5.00003 12.6563 6.09378 12.8906L7.65628 13.2813C8.12499 13.4375 8.28124 13.5938 8.28124 13.9844C8.28124 14.375 7.89062 14.5313 7.57816 14.6094C7.03128 14.6094 6.64066 14.375 6.64066 13.9062H4.14066C4.14066 15.3125 5.54691 16.25 7.57816 16.25C9.53124 16.25 10.7812 15.3906 10.7812 13.8281C10.7812 12.6563 10.0781 11.9531 8.98437 11.6406Z" fill="white"/>
<path id="Vector_4" d="M20.9375 16.4063C21.7573 16.4063 22.4219 15.7417 22.4219 14.922C22.4219 14.1021 21.7573 13.4376 20.9375 13.4376C20.1177 13.4376 19.4531 14.1021 19.4531 14.922C19.4531 15.7417 20.1177 16.4063 20.9375 16.4063Z" fill="#00FF84"/>
</g>
<defs>
<clipPath id="clip0_54_284">
<rect width="25" height="25" fill="white"/>
</clipPath>
</defs>
</svg>
