<svg width="25" height="25" viewBox="0 0 25 25" fill="none" xmlns="http://www.w3.org/2000/svg">
<g id="udemy-fav">
<g id="Group 10">
<circle id="Ellipse 2" cx="12.5" cy="12.5" r="12.5" fill="#C140EC"/>
<g id="Group 9">
<g id="LightGray">
<path id="Vector" d="M10.5637 3.02951C9.61336 3.59969 8.64721 4.16988 8.42547 4.31243C8.20373 4.43914 7.79193 4.66088 7.52267 4.80343L7 5.07268V6.62486C7 7.49598 7.04752 8.1612 7.12671 8.12952C7.58603 7.87611 11.3081 5.69038 11.7832 5.38945L12.3693 5.02516L14.159 6.10219C15.141 6.68821 16.3606 7.40095 16.8674 7.68604L17.7702 8.19288V6.70405V5.21523L16.8991 4.6292C16.4239 4.31243 15.9963 4.05901 15.9646 4.05901C15.9171 4.05901 15.1252 3.59969 14.1749 3.02951C13.2404 2.45932 12.4326 2 12.3851 2C12.3376 2 11.5298 2.45932 10.5637 3.02951Z" fill="#ECECEC"/>
</g>
<path id="Vector_2" d="M7 13.9913C7 18.2202 7.09503 18.9329 7.79193 20.0733C8.26708 20.8177 9.2174 21.5305 10.2786 21.9106C11.5457 22.3541 13.8739 22.259 14.9193 21.7205C16.4715 20.9286 17.0575 20.2317 17.5326 18.6795C17.7227 18.046 17.7702 17.0165 17.7702 13.928V10H16.3448H14.9193V13.8804C14.9193 18.2836 14.8718 18.5211 13.7631 19.2497C12.7811 19.8833 11.3398 19.7566 10.5478 18.9646C9.9143 18.3152 9.85094 17.8876 9.85094 13.8804V10H8.42547H7V13.9913Z" fill="#ECECEC"/>
</g>
</g>
</g>
</svg>
