<svg width="100" height="20" viewBox="0 0 100 20" fill="none" xmlns="http://www.w3.org/2000/svg">
<g clip-path="url(#clip0_63_44)">
<path d="M30.5784 4.74555L26.4681 2.37277L22.3591 4.74555V2.37277L26.4687 0L30.579 2.37277L30.5784 4.74555Z" fill="#A435F0"/>
<path d="M-4.57764e-05 6.73807H2.15277V11.9686C2.15277 13.3199 3.1619 13.9787 4.1096 13.9787C5.0655 13.9787 6.06702 13.3024 6.06702 11.9505V6.73807H8.21984V12.0932C8.21984 13.3381 7.82847 14.2987 7.04573 14.9574C6.26241 15.6155 5.28429 15.9361 4.09147 15.9361C2.89982 15.9361 1.92111 15.6161 1.15651 14.9574C0.391321 14.2992 -4.57764e-05 13.3743 -4.57764e-05 12.1464V6.73807ZM26.8317 13.2386C26.18 13.819 25.4377 14.1033 24.5912 14.1033C23.0467 14.1033 22.0113 13.2234 21.8943 11.8609H28.85C28.85 11.8609 28.8968 11.421 28.8968 11.008C28.8968 9.72685 28.4873 8.65922 27.6507 7.78757C26.8329 6.91591 25.7658 6.48886 24.4665 6.48886C23.0971 6.48886 21.9756 6.91591 21.0858 7.78757C20.2142 8.65922 19.7696 9.79764 19.7696 11.2215V11.2917C19.7696 12.6975 20.2142 13.8184 21.0858 14.6549C21.9575 15.4909 23.114 15.9179 24.5198 15.9179C26.1543 15.9179 27.4547 15.2733 28.4305 14.1618L26.8317 13.2386ZM22.7402 8.87275C23.2199 8.49893 23.8078 8.30354 24.466 8.30354C25.0884 8.30354 25.6044 8.49893 26.0496 8.89088C26.4743 9.24774 26.7036 9.6859 26.7235 10.1896H21.9493C22.0183 9.66894 22.2816 9.23019 22.7408 8.87333L22.7402 8.87275ZM48.5026 17.1266C47.6292 19.1887 46.7154 19.8901 45.3143 19.8901H44.3432V17.9818H45.1283C45.6103 17.9818 46.0584 17.8005 46.4855 16.8153L46.9125 15.829L43.2294 6.73807H45.4179L48.0334 13.2854L50.7203 6.73807H52.9082L48.5026 17.1266ZM16.6006 3.30469V7.55006C15.8951 6.91825 14.7976 6.5421 13.7364 6.5421C12.4728 6.5421 11.4058 6.9867 10.5341 7.89345C9.68 8.78324 9.25295 9.88597 9.25295 11.2204C9.25295 12.5553 9.68 13.6581 10.5341 14.5654C11.4058 15.4552 12.4734 15.9004 13.7364 15.9004C15.1931 15.9004 16.1139 15.3277 16.6006 14.879V15.7044H18.7359V3.30527L16.6006 3.30469ZM15.96 13.1784C15.444 13.6943 14.7859 13.9617 14.0207 13.9617C13.2555 13.9617 12.6331 13.6943 12.1171 13.1784C11.6199 12.6624 11.3701 12.0043 11.3701 11.2215C11.3701 10.4382 11.6193 9.78009 12.1171 9.26412C12.6331 8.74814 13.2555 8.48138 14.0207 8.48138C14.7859 8.48138 15.444 8.74814 15.96 9.26412C16.4935 9.78009 16.7615 10.4382 16.7615 11.2215C16.7615 12.0043 16.4935 12.6624 15.96 13.1784ZM39.91 6.56023C38.2884 6.56023 37.4454 7.23298 36.868 7.88117C36.637 7.44066 35.9864 6.56023 34.4666 6.56023C33.1819 6.56023 32.4249 7.20958 32.047 7.67174V6.73924H29.9305V15.7056H32.047V10.5459C32.047 9.33607 32.7947 8.46442 33.7903 8.46442C34.8053 8.46442 35.3921 9.2296 35.3921 10.4569V15.705H37.5092V10.5453C37.5092 9.31794 38.2381 8.46383 39.2876 8.46383C40.302 8.46383 40.8888 9.22902 40.8888 10.4558V15.7044H43.024V10.1539C43.024 7.81623 41.7674 6.56082 39.91 6.56082V6.56023Z" fill="black"/>
</g>
<defs>
<clipPath id="clip0_63_44">
<rect width="71.4286" height="20" fill="white"/>
</clipPath>
</defs>
</svg>
