<svg width="100" height="20" viewBox="0 0 100 20" fill="none" xmlns="http://www.w3.org/2000/svg">
<path d="M27.9121 3.13187C27.5824 1.90476 26.6117 0.934066 25.3846 0.604396C23.1685 0 14.2491 0 14.2491 0C14.2491 0 5.32967 0.018315 3.11355 0.622711C1.88645 0.952381 0.915751 1.92308 0.586081 3.15018C-4.36664e-08 5.3663 0 10 0 10C0 10 -4.36664e-08 14.6337 0.604396 16.8681C0.934066 18.0952 1.90476 19.0659 3.13187 19.3956C5.34799 20 14.2674 20 14.2674 20C14.2674 20 23.1868 20 25.4029 19.3956C26.63 19.0659 27.6007 18.0952 27.9304 16.8681C28.5348 14.652 28.5348 10 28.5348 10C28.5348 10 28.5165 5.3663 27.9121 3.13187Z" fill="#FF0000"/>
<path d="M18.8093 10L11.4101 5.71429V14.2857L18.8093 10Z" fill="white"/>
<path d="M41.3919 18.1868C40.8242 17.8022 40.4213 17.2161 40.1832 16.4102C39.9451 15.6044 39.8352 14.5421 39.8352 13.2051V11.3919C39.8352 10.0549 39.9634 8.95603 40.2381 8.15017C40.5128 7.32599 40.9341 6.73991 41.5202 6.37361C42.1062 6.00731 42.8572 5.80585 43.7912 5.80585C44.707 5.80585 45.4579 5.989 46.0073 6.37361C46.5568 6.75823 46.978 7.34431 47.2344 8.15017C47.4909 8.95603 47.6191 10.0366 47.6191 11.3736V13.1868C47.6191 14.5238 47.4909 15.5861 47.2344 16.3919C46.978 17.1978 46.5751 17.7839 46.0073 18.1685C45.4396 18.5348 44.6703 18.7362 43.718 18.7362C42.7289 18.7546 41.9597 18.5531 41.3919 18.1868ZM44.5604 16.2271C44.7253 15.8242 44.7985 15.1465 44.7985 14.2308V10.3297C44.7985 9.43222 44.7253 8.77288 44.5604 8.36995C44.3956 7.9487 44.1209 7.74724 43.7363 7.74724C43.3517 7.74724 43.0952 7.9487 42.9304 8.36995C42.7656 8.79119 42.6923 9.43222 42.6923 10.3297V14.2308C42.6923 15.1465 42.7656 15.8242 42.9121 16.2271C43.0586 16.63 43.3333 16.8315 43.7363 16.8315C44.1209 16.8315 44.3956 16.63 44.5604 16.2271ZM84.707 13.2417V13.8828L84.7802 15.696C84.8352 16.0989 84.9268 16.3919 85.0733 16.5751C85.2198 16.7582 85.4579 16.8498 85.7692 16.8498C86.1905 16.8498 86.4835 16.685 86.63 16.3553C86.7949 16.0256 86.8681 15.4762 86.8865 14.7253L89.3224 14.8718C89.3407 14.9817 89.3407 15.1282 89.3407 15.3113C89.3407 16.4652 89.0293 17.326 88.3883 17.8938C87.7473 18.4615 86.8681 18.7546 85.7143 18.7546C84.3224 18.7546 83.3517 18.315 82.8022 17.4542C82.2528 16.5934 81.9597 15.2381 81.9597 13.4249V11.2088C81.9597 9.34065 82.2528 7.96702 82.8205 7.10621C83.4066 6.24541 84.3956 5.80585 85.7876 5.80585C86.7583 5.80585 87.4909 5.989 88.0037 6.33698C88.5165 6.68497 88.8828 7.23442 89.1026 7.98533C89.3224 8.73625 89.4139 9.76189 89.4139 11.0806V13.2234H84.707V13.2417ZM85.0733 7.96702C84.9268 8.15017 84.8352 8.42489 84.7802 8.82783C84.7253 9.23076 84.707 9.83515 84.707 10.6593V11.5568H86.7583V10.6593C86.7583 9.85347 86.7399 9.24907 86.685 8.82783C86.6301 8.40658 86.5385 8.11354 86.392 7.9487C86.2454 7.78387 86.0257 7.69229 85.7326 7.69229C85.4213 7.71061 85.2015 7.80218 85.0733 7.96702ZM34.5421 13.0036L31.337 1.42856H34.1392L35.2564 6.66665C35.5495 7.96702 35.7509 9.06592 35.8974 9.96336H35.9707C36.0623 9.30402 36.2821 8.22343 36.6117 6.68497L37.7656 1.42856H40.5678L37.326 12.9853V18.5348H34.5605V13.0036H34.5421Z" fill="#282828"/>
<path d="M56.7033 6.04395V18.5531H54.5055L54.2674 17.0146H54.2125C53.6081 18.1685 52.7106 18.7546 51.5202 18.7546C50.696 18.7546 50.0733 18.4798 49.6887 17.9304C49.2857 17.3809 49.1026 16.5385 49.1026 15.3846V6.04395H51.9231V15.2198C51.9231 15.7692 51.978 16.1722 52.1062 16.4102C52.2344 16.6483 52.4359 16.7582 52.7106 16.7582C52.9487 16.7582 53.1868 16.685 53.4066 16.5385C53.6264 16.3919 53.7912 16.1905 53.9011 15.9707V6.04395H56.7033Z" fill="#282828"/>
<path d="M71.1539 6.04395V18.5531H68.9561L68.718 17.0146H68.663C68.0586 18.1685 67.1612 18.7546 65.9707 18.7546C65.1465 18.7546 64.5238 18.4798 64.1392 17.9304C63.7363 17.3809 63.5531 16.5385 63.5531 15.3846V6.04395H66.3736V15.2198C66.3736 15.7692 66.4286 16.1722 66.5568 16.4102C66.685 16.6483 66.8865 16.7582 67.1612 16.7582C67.3993 16.7582 67.6374 16.685 67.8572 16.5385C68.0769 16.3919 68.2418 16.1905 68.3517 15.9707V6.04395H71.1539Z" fill="#282828"/>
<path d="M64.359 3.69963H61.5568V18.5531H58.8095V3.69963H56.0073V1.42856H64.3407V3.69963H64.359ZM80.4579 8.04028C80.2931 7.25274 80.0183 6.68497 79.6337 6.31867C79.2491 5.97069 78.7363 5.78754 78.0586 5.78754C77.5458 5.78754 77.0513 5.93406 76.6117 6.2271C76.1539 6.52014 75.8242 6.90475 75.5678 7.38094H75.5495V0.787537H72.8388V18.5348H75.1648L75.4579 17.3443H75.5128C75.7326 17.7656 76.0623 18.0952 76.4835 18.3516C76.9269 18.5946 77.4248 18.7206 77.9304 18.7179C78.8828 18.7179 79.5788 18.2784 80.0366 17.3993C80.4762 16.5201 80.7143 15.1465 80.7143 13.2967V11.3187C80.7143 9.92673 80.6227 8.82783 80.4579 8.04028ZM77.8755 13.1502C77.8755 14.0659 77.8388 14.7802 77.7656 15.293C77.6923 15.8059 77.5641 16.1722 77.381 16.3919C77.1978 16.6117 76.9597 16.7216 76.6667 16.7216C76.4286 16.7216 76.2271 16.6667 76.0257 16.5568C75.8242 16.4469 75.6777 16.282 75.5495 16.0623V8.95604C75.641 8.60805 75.8059 8.33332 76.044 8.11354C76.2821 7.89376 76.5202 7.78387 76.7949 7.78387C77.0879 7.78387 77.3077 7.89376 77.4542 8.11354C77.6191 8.33332 77.7106 8.71794 77.7839 9.24908C77.8388 9.78021 77.8755 10.5311 77.8755 11.5201V13.1502Z" fill="#282828"/>
</svg>
